HIERARCHY
ROOT Hips
{
	OFFSET 0.000000 0.000000 0.000000 
	CHANNELS 6 Xposition Yposition Zposition Zrotation Yrotation Xrotation
	JOINT LeftUpLeg
	{
		OFFSET 1.363060 -1.794630 0.839290 
		CHANNELS 3 Zrotation Yrotation Xrotation
		JOINT LeftLeg
		{
			OFFSET 2.448110 -6.726130 0.000000 
			CHANNELS 3 Zrotation Yrotation Xrotation
			JOINT LeftFoot
			{
				OFFSET 2.562200 -7.039590 0.000000 
				CHANNELS 3 Zrotation Yrotation Xrotation
				JOINT LeftToeBase
				{
					OFFSET 0.157640 -0.433110 2.322550 
					CHANNELS 3 Zrotation Yrotation Xrotation
					End Site
					{
						OFFSET 0.000000 0.000000 0.000000 
					}
				}
			}
		}
	}
	JOINT RightUpLeg
	{
		OFFSET -1.305520 -1.794630 0.839290 
		CHANNELS 3 Zrotation Yrotation Xrotation
		JOINT RightLeg
		{
			OFFSET -2.542530 -6.985550 0.000000 
			CHANNELS 3 Zrotation Yrotation Xrotation
			JOINT RightFoot
			{
				OFFSET -2.568260 -7.056230 0.000000 
				CHANNELS 3 Zrotation Yrotation Xrotation
				JOINT RightToeBase
				{
					OFFSET -0.164730 -0.452590 2.363150 
					CHANNELS 3 Zrotation Yrotation Xrotation
					End Site
					{
						OFFSET 0.000000 0.000000 0.000000 
					}
				}
			}
		}
	}
	JOINT Spine
	{
		OFFSET 0.028270 2.035590 -0.193380 
		CHANNELS 3 Zrotation Yrotation Xrotation
		JOINT Spine1
		{
			OFFSET 0.056720 2.048850 -0.042750 
			CHANNELS 3 Zrotation Yrotation Xrotation
			JOINT Neck1
			{
				OFFSET -0.054170 1.746240 0.172020 
				CHANNELS 3 Zrotation Yrotation Xrotation
				JOINT Head
				{
					OFFSET 0.104070 1.761360 -0.123970 
					CHANNELS 3 Zrotation Yrotation Xrotation
					End Site
					{
						OFFSET 0.000000 0.000000 0.000000 
					}
				}
			}
			JOINT LeftArm
			{
				OFFSET 3.362410 1.200890 -0.311210 
				CHANNELS 3 Zrotation Yrotation Xrotation
				JOINT LeftForeArm
				{
					OFFSET 4.983000 -0.000000 -0.000000 
					CHANNELS 3 Zrotation Yrotation Xrotation
					JOINT LeftHand
					{
						OFFSET 3.483560 -0.000000 -0.000000 
						CHANNELS 3 Zrotation Yrotation Xrotation
						JOINT LeftHandIndex1
						{
							OFFSET 0.715260 -0.000000 -0.000000 
							CHANNELS 3 Zrotation Yrotation Xrotation
							End Site
							{
								OFFSET 0.000000 0.000000 0.000000 
							}
						}
					}
				}
			}
			JOINT RightArm
			{
				OFFSET -3.136600 1.374050 -0.404650 
				CHANNELS 3 Zrotation Yrotation Xrotation
				JOINT RightForeArm
				{
					OFFSET -5.241900 -0.000000 -0.000000 
					CHANNELS 3 Zrotation Yrotation Xrotation
					JOINT RightHand
					{
						OFFSET -3.444170 -0.000000 -0.000000 
						CHANNELS 3 Zrotation Yrotation Xrotation
						JOINT RightHandIndex1
						{
							OFFSET -0.622530 -0.000000 -0.000000 
							CHANNELS 3 Zrotation Yrotation Xrotation
							End Site
							{
								OFFSET 0.000000 0.000000 0.000000 
							}
						}
					}
				}
			}
		}
	}
}
MOTION
Frames: 18
Frame Time: 0.041667
6.748440 17.793502 11.714624 -177.915421 7.295272 -139.962190 -9.332025 -18.090729 -76.804577 16.752870 21.656986 80.937404 -179.625017 -1.731006 9.351162 2.307000 -9.478300 -27.303100 12.678060 24.132271 -78.249226 -15.096041 -20.352003 76.686908 0.569264 -8.573971 0.910670 -1.705100 8.222800 -23.393000 0.713850 3.573546 -0.125663 0.864485 2.799563 3.171154 -0.013504 -4.575325 15.896476 -0.359300 -2.323000 7.757000 -85.657416 -6.684872 25.369651 30.731988 -35.228248 -9.650772 -0.644991 -0.151661 -45.801556 -7.125000 0.000000 0.000000 80.990840 1.007299 22.024017 -29.113897 32.875676 -7.973354 -1.421820 -1.901824 -19.526824 7.125000 0.000000 0.000000 
6.735511 17.880361 11.612626 -177.868330 7.746491 -141.087349 -9.590101 -18.066771 -75.842966 16.174953 21.566710 79.291410 -179.710965 -3.539496 6.179324 2.060300 -8.990600 -25.765900 13.720817 25.193764 -76.356830 -13.894666 -20.000408 73.066609 0.262706 -5.619821 0.222536 -2.008000 8.882800 -25.429300 0.667224 3.768440 -0.101487 0.918088 2.888418 3.332543 0.227535 -4.601491 15.572642 -0.259500 -2.329100 7.660500 -85.316857 -7.818460 24.278889 28.955537 -33.526531 -8.641637 -0.683595 -0.135479 -44.816659 -7.125000 0.000000 0.000000 81.980723 1.171516 21.455121 -27.603193 31.511757 -7.333049 -1.508607 -1.860972 -18.638353 7.125000 0.000000 0.000000 
6.713851 17.890527 11.577927 -177.977665 7.844160 -141.124465 -8.927327 -18.686871 -76.149896 15.076050 21.358872 76.146583 -179.732797 -5.192346 3.838371 1.903700 -8.662500 -24.745300 13.362851 26.428328 -76.247886 -12.549258 -19.479893 68.900221 0.057825 -3.443612 0.226495 -2.066700 9.003700 -25.807000 0.665808 3.764516 -0.198609 0.987105 2.847091 3.303951 0.393359 -4.615149 15.383141 -0.192200 -2.336400 7.685600 -84.798890 -9.347164 23.709544 27.100767 -31.641412 -7.663795 -0.728731 -0.112837 -43.337110 -7.125000 0.000000 0.000000 82.781789 1.997504 20.512655 -25.750013 29.764379 -6.584887 -1.606851 -1.807786 -17.037631 7.125000 0.000000 0.000000 
6.686998 17.885775 11.517700 -178.260386 7.719545 -141.747969 -8.541939 -19.458756 -75.043801 13.571126 20.977988 71.791528 -179.727706 -6.987591 2.817330 1.885400 -8.623200 -24.623500 12.606523 27.454472 -75.110851 -11.242153 -18.865657 64.687430 0.049843 -3.233668 -0.590043 -2.005400 8.877400 -25.412500 0.669279 3.686203 -0.249234 0.923821 2.822944 3.242774 0.441092 -4.647779 15.312803 -0.155400 -2.362400 7.757000 -84.184241 -11.054097 23.744735 25.377156 -29.783851 -6.814690 -0.768501 -0.083314 -41.583022 -7.125000 0.000000 0.000000 83.372670 2.952150 19.365714 -23.946447 28.020830 -5.913492 -1.722020 -1.720548 -15.004975 7.125000 0.000000 0.000000 
6.659261 17.804553 11.426311 -178.503122 7.908728 -142.223977 -8.523394 -19.677018 -73.719278 12.046651 20.467193 67.295942 -179.739514 -7.978761 2.836658 2.071000 -9.012300 -25.833900 11.539413 28.606030 -74.046357 -10.212383 -18.288371 61.247798 0.226086 -5.136164 -1.632276 -1.720200 8.257200 -23.498100 0.674094 3.694550 -0.237152 1.105391 2.792054 3.716517 0.363265 -4.548192 15.646246 -0.116100 -2.346800 8.033500 -84.055295 -12.851147 23.585979 23.807697 -28.085001 -6.090403 -0.795476 -0.041391 -39.056836 -7.125000 0.000000 0.000000 83.442020 4.028888 18.460016 -22.173742 26.255096 -5.307018 -1.856209 -1.572734 -12.712780 7.125000 0.000000 0.000000 
6.634286 17.658131 11.328954 -179.404553 8.090422 -143.255731 -9.869224 -19.683248 -71.646239 10.701366 19.884365 63.243833 -179.765018 -6.742237 2.392787 2.281900 -9.430200 -27.150400 10.304969 28.904766 -72.643628 -9.637417 -17.920175 59.259273 0.358666 -6.752727 -0.988780 -1.707100 8.227300 -23.406700 0.596959 3.760080 -0.237483 0.917027 2.845361 3.944977 0.378628 -4.772289 15.940025 -0.160000 -2.436000 8.172000 -82.447209 -14.215623 25.692617 23.055950 -27.187784 -5.760442 -0.805595 -0.002689 -38.806430 -7.125000 0.000000 0.000000 83.903097 5.036605 17.008979 -20.616154 24.730046 -4.825889 -1.976029 -1.423850 -10.257173 7.125000 0.000000 0.000000 
6.609422 17.427945 11.235355 -179.493226 7.546280 -144.614173 -10.440061 -19.168162 -69.727966 9.874792 19.462387 60.695355 -179.824031 -4.315399 1.714519 2.232000 -9.333500 -26.844200 10.765488 28.828757 -70.947189 -9.566244 -17.887618 58.997066 0.357556 -6.877142 -0.707988 -1.581400 7.933600 -22.512700 0.648026 3.700584 -0.225641 0.908528 2.840992 4.292958 0.406779 -4.736990 16.264119 -0.084700 -2.416400 8.169700 -81.928360 -15.061559 26.682129 22.643398 -26.739025 -5.591085 -0.800881 0.031220 -37.931213 -7.125000 0.000000 0.000000 83.795613 5.689916 16.819706 -19.500131 23.597205 -4.490047 -2.051404 -1.311472 -8.452359 7.125000 0.000000 0.000000 
6.573176 17.108911 11.119875 179.955865 7.123002 -146.676243 -12.350955 -18.295907 -66.985866 9.605591 19.293426 59.865977 -179.852761 -3.423580 1.224235 2.241300 -9.351600 -26.901600 11.979413 27.693664 -68.178377 -10.002543 -18.201219 60.465826 0.230546 -5.189121 -3.894731 -1.349700 7.354700 -20.770600 0.732714 3.332730 -0.245544 1.393766 2.616159 4.506348 0.168745 -4.434666 17.216663 -0.078500 -2.294700 8.499600 -82.665262 -15.172542 26.432846 22.667098 -26.856094 -5.627343 -0.791192 0.056514 -36.293454 -7.125000 0.000000 0.000000 83.104701 5.862147 18.157699 -19.033453 23.031311 -4.334539 -2.079427 -1.262936 -7.700864 7.125000 0.000000 0.000000 
6.531625 16.690311 11.071363 179.293981 6.290302 -148.169843 -14.340231 -17.482963 -65.447420 10.083117 19.500614 61.377747 -179.711223 -3.711667 -4.764670 2.084700 -9.040300 -25.921600 12.686427 26.209417 -67.305769 -10.884198 -18.733958 63.410434 0.030714 -3.655342 -8.397671 -1.210100 6.978400 -19.651500 0.784338 2.945060 -0.391106 1.337573 2.418130 4.554171 -0.088738 -4.491605 18.302040 -0.255300 -2.287900 8.930200 -82.429594 -15.026096 27.748133 23.148773 -27.422616 -5.843667 -0.779789 0.070261 -36.505369 -7.125000 0.000000 0.000000 83.020048 5.698734 19.028300 -19.184800 23.205829 -4.367499 -2.071940 -1.260542 -7.459532 7.125000 0.000000 0.000000 
6.471952 16.388074 11.001964 179.122878 6.311724 -151.551752 -16.383799 -16.066278 -62.776059 10.920293 19.864268 64.006467 -179.400360 -5.659905 -9.011711 2.000000 -8.866100 -25.377400 14.309809 25.136411 -64.316688 -11.887798 -19.269786 66.635782 -0.300315 -2.430116 -13.429114 -0.691000 5.314000 -14.806500 0.799265 2.850739 -0.397469 1.443390 2.402509 4.232002 -0.194081 -4.303509 18.695252 -0.232000 -2.205700 9.067800 -83.000329 -14.567526 27.866391 24.187950 -28.616150 -6.332564 -0.759912 0.057489 -37.095107 -7.125000 0.000000 0.000000 82.414619 5.557988 20.423160 -19.978416 23.966578 -4.581060 -2.026907 -1.308058 -7.930936 7.125000 0.000000 0.000000 
6.428633 16.051139 10.972569 178.972771 6.141478 -155.043638 -17.359981 -15.647847 -60.448181 12.013966 20.295077 67.367300 -179.103792 -7.927868 -11.699051 1.823500 -8.488300 -24.207400 15.452607 24.413953 -61.561814 -13.001027 -19.756311 70.119406 -0.554726 -1.917760 -16.501903 -0.800100 5.709100 -15.942800 0.851924 2.733528 -0.438562 1.851247 2.351727 3.503062 -0.117545 -4.109130 18.389079 -0.101200 -2.129100 8.851000 -83.657375 -13.970867 27.679396 25.591291 -30.169575 -7.022849 -0.745720 0.032913 -38.011671 -7.125000 0.000000 0.000000 81.630927 5.577081 21.757053 -21.314150 25.214197 -4.960398 -1.935214 -1.414629 -8.940936 7.125000 0.000000 0.000000 
6.392829 15.757522 10.908586 178.873868 6.566285 -156.503567 -17.577850 -15.877761 -60.170244 13.064592 20.660031 70.530009 -178.883298 -9.625476 -13.444132 1.727700 -8.274100 -23.549900 15.193509 24.677131 -61.199695 -13.998139 -20.095644 73.185618 -0.801094 -1.104345 -18.419003 -0.765300 5.586300 -15.588800 0.800954 2.956014 -0.584738 1.810869 2.421842 3.046803 0.078481 -4.305477 17.727484 -0.074000 -2.181300 8.386300 -83.599878 -13.837075 28.488692 27.020280 -31.687146 -7.759090 -0.722597 0.015160 -39.500723 -7.125000 0.000000 0.000000 81.209425 6.069383 22.397356 -22.796851 26.700365 -5.409423 -1.790298 -1.569893 -10.820423 7.125000 0.000000 0.000000 
6.350394 15.538497 10.828026 179.754841 7.037113 -157.176586 -16.564712 -16.028749 -60.422605 13.984386 20.942751 73.251052 -178.717240 -10.977609 -14.668811 1.560500 -7.883300 -22.360200 15.899910 25.370456 -61.063448 -14.770777 -20.329503 75.515646 -1.010563 -0.445478 -19.849770 -0.778900 5.634700 -15.728000 0.819387 3.223770 -0.688192 1.780684 2.504251 3.006455 0.212564 -4.286114 16.825166 -0.001100 -2.158700 7.743400 -83.688007 -14.403358 29.144881 27.888845 -32.607959 -8.221863 -0.700582 0.008718 -40.747601 -7.125000 0.000000 0.000000 80.109071 7.495761 23.585121 -23.975609 27.884770 -5.820541 -1.653563 -1.707588 -13.568502 7.125000 0.000000 0.000000 
6.301992 15.375609 10.753655 179.961146 7.586969 -158.078835 -16.509530 -16.433766 -59.800600 14.595774 21.097265 75.066439 -178.555839 -12.599593 -15.773807 1.445400 -7.600100 -21.505800 16.144732 25.440708 -60.438063 -15.318118 -20.473208 77.132064 -1.242029 0.360756 -21.207626 -0.731800 5.465400 -15.241000 0.789655 3.342525 -0.745105 1.780259 2.516523 3.032079 0.316923 -4.221198 16.127656 0.052000 -2.110900 7.200000 -83.725482 -15.812053 29.818055 27.937465 -32.684303 -8.269634 -0.687687 -0.002070 -41.189183 -7.125000 0.000000 0.000000 78.942128 9.974590 24.060639 -24.426371 28.345690 -6.017355 -1.589714 -1.762342 -15.226822 7.125000 0.000000 0.000000 
6.252264 15.265655 10.699728 -179.945707 7.826310 -159.135600 -16.762379 -16.849622 -58.459018 14.881682 21.151853 75.940113 -178.384207 -14.096089 -17.008713 1.354300 -7.366800 -20.806600 16.647530 24.860663 -59.283315 -15.600195 -20.548125 77.932551 -1.493874 1.372752 -22.465813 -0.632300 5.087900 -14.159500 0.783570 3.329440 -0.782475 1.787288 2.476412 3.013811 0.313171 -4.115110 15.990899 0.024200 -2.042000 7.046900 -83.784160 -17.818348 30.500272 27.300967 -32.043579 -7.974331 -0.684483 -0.026164 -40.548103 -7.125000 0.000000 0.000000 77.832896 13.542827 23.559869 -23.881084 27.792105 -5.886312 -1.635080 -1.720019 -15.042951 7.125000 0.000000 0.000000 
6.204193 15.232282 10.665470 -179.710915 8.057666 -160.039287 -17.019440 -16.813659 -56.935266 14.849803 21.129916 75.890141 -178.220957 -15.082506 -18.219163 1.212700 -6.985700 -19.673000 17.395599 24.208005 -57.913680 -15.626824 -20.561911 77.971313 -1.681705 2.200543 -23.317456 -0.600300 4.959700 -13.793600 0.855481 3.163350 -0.839551 2.266226 2.310032 2.887077 0.131222 -3.715675 16.039263 -0.002800 -1.871300 7.089200 -84.137647 -20.432818 31.089569 25.898588 -30.560768 -7.295947 -0.707818 -0.049485 -39.501196 -7.125000 0.000000 0.000000 76.552565 18.033754 22.664893 -22.640147 26.334699 -5.369911 -1.691734 -1.629108 -12.072647 7.125000 0.000000 0.000000 
6.158885 15.259025 10.648784 -179.377887 8.453160 -160.528166 -17.199158 -16.388207 -55.861028 14.629101 21.068558 75.279171 -178.134882 -15.769813 -18.846721 1.201000 -6.953300 -19.577100 18.045006 23.802719 -56.913302 -15.463014 -20.525423 77.457416 -1.742261 2.742184 -23.368092 -0.606600 4.985400 -13.867000 0.955924 2.928425 -0.958038 2.942433 2.077492 2.604051 -0.163798 -3.108635 16.062397 -0.044500 -1.624500 7.196100 -84.693147 -22.584890 31.634572 24.876100 -29.448052 -6.840077 -0.733911 -0.064220 -38.452370 -7.125000 0.000000 0.000000 75.480871 22.830898 22.037017 -21.295296 24.721760 -4.908511 -1.799680 -1.511918 -9.190878 7.125000 0.000000 0.000000 
6.117777 15.316378 10.641932 -179.139149 9.022353 -160.738375 -17.484220 -15.775635 -55.161325 14.323205 20.984047 74.401161 -178.157250 -16.266221 -18.693187 1.296700 -7.214600 -20.352800 18.393731 23.637134 -56.255352 -15.177931 -20.454255 76.593117 -1.711546 3.147032 -22.794809 -0.572100 4.844000 -13.464200 0.956642 2.884249 -1.085736 3.050390 1.986189 2.377812 -0.398260 -2.800256 16.068830 -0.205500 -1.480800 7.319800 -84.748943 -24.440556 32.918896 24.730850 -29.276266 -6.833016 -0.724446 -0.084963 -37.825648 -7.125000 0.000000 0.000000 74.953678 27.325817 21.620303 -20.705821 23.920997 -4.698614 -1.828177 -1.494022 -7.498558 7.125000 0.000000 0.000000 
